<svg xmlns="http://www.w3.org/2000/svg" viewBox="0 0 112.196 112.196"><defs><style>.a{fill:#fff;}</style></defs><title>behance_white</title><path class="a" d="M44.892,59.028H32.596v11.31h11.68c1.748-.041,5.058-.555,5.058-5.491C49.355,58.987,44.892,59.028,44.892,59.028Z" transform="translate(0 0)"/><path class="a" d="M76.374,52.53c-6.519,0-7.424,6.498-7.424,6.498H82.81S82.913,52.53,76.374,52.53Z" transform="translate(0 0)"/><path class="a" d="M47.874,47.492c0-4.4-2.982-4.4-2.982-4.4H32.596V52.53H44.131C46.126,52.53,47.874,51.892,47.874,47.492Z" transform="translate(0 0)"/><path class="a" d="M56.098,0a56.098,56.098,0,1,0,56.098,56.098A56.098,56.098,0,0,0,56.098,0ZM67.12,38.075H84.558v5.203H67.12ZM58.319,65.362c0,12.893-13.428,12.481-13.428,12.481H22.91V35.587H44.893c6.683,0,11.947,3.702,11.947,11.248,0,7.567-6.436,8.04-6.436,8.04C58.896,54.875,58.32,65.362,58.319,65.362Zm32.593-.679H69.033c0,7.835,7.423,7.341,7.423,7.341,7.032,0,6.786-4.544,6.786-4.544h7.423c0,12.07-14.456,11.248-14.456,11.248-17.334,0-16.224-16.162-16.224-16.162,0-.083.021-16.225,16.224-16.225C93.318,46.341,90.912,64.683,90.912,64.683Z" transform="translate(0 0)"/></svg>