<svg xmlns="http://www.w3.org/2000/svg" viewBox="0 0 112.196 112.196"><defs><style>.a{fill:#fff;}</style></defs><title>linkedin_white</title><path class="a" d="M62.095,49.256v-.132c-.027.045-.0649.089-.089.132Z" transform="translate(0 0.001)"/><path class="a" d="M56.098-.001a56.098,56.098,0,1,0,56.098,56.098A56.098,56.098,0,0,0,56.098-.001ZM41.27,83.739H27.865V43.409H41.27ZM34.567,37.906H34.48c-4.498,0-7.412-3.098-7.412-6.97,0-3.956,3.001-6.967,7.588-6.967s7.407,3.011,7.496,6.967C42.152,34.808,39.244,37.906,34.567,37.906ZM89.616,83.739H76.207V62.161c0-5.418-1.936-9.118-6.791-9.118a7.3345,7.3345,0,0,0-6.878,4.903,9.1767,9.1767,0,0,0-.444,3.2679V83.738H48.684s.18-36.546,0-40.329H62.095v5.715A13.3142,13.3142,0,0,1,74.18,42.462c8.822,0,15.436,5.764,15.436,18.149Z" transform="translate(0 0.001)"/></svg>