<svg xmlns="http://www.w3.org/2000/svg" viewBox="0 0 112.196 112.196"><defs><style>.a{fill:#fff;}</style></defs><title>twitter_white</title><path class="a" d="M56.099,0a56.098,56.098,0,1,0,56.098,56.098A56.098,56.098,0,0,0,56.099,0Zm27.67,47.256c.026.574.039,1.153.039,1.734,0,17.721-13.488,38.153-38.152,38.153a37.9287,37.9287,0,0,1-20.553-6.025A27.0688,27.0688,0,0,0,44.955,75.566a13.4232,13.4232,0,0,1-12.526-9.312,13.4607,13.4607,0,0,0,6.055-.232A13.4168,13.4168,0,0,1,27.727,52.875c0-.056,0-.113.001-.17a13.3147,13.3147,0,0,0,6.0731,1.679,13.4237,13.4237,0,0,1-4.149-17.903A38.0637,38.0637,0,0,0,57.291,50.493a13.4186,13.4186,0,0,1,22.85-12.232,26.8434,26.8434,0,0,0,8.515-3.253,13.4452,13.4452,0,0,1-5.897,7.417,26.7526,26.7526,0,0,0,7.702-2.109A27.1916,27.1916,0,0,1,83.769,47.256Z" transform="translate(-0.001 0)"/></svg>